<?xml version="1.0" standalone="no"?>
<!DOCTYPE svg PUBLIC "-//W3C//DTD SVG 1.1//EN" "http://www.w3.org/Graphics/SVG/1.1/DTD/svg11.dtd" >
<svg xmlns="http://www.w3.org/2000/svg">
<metadata>
Created by FontForge 20120731 at Sat Jul 22 15:00:18 2017
 By admin
</metadata>
<defs>
<font id="iconfont" horiz-adv-x="1024" >
  <font-face 
    font-family="iconfont"
    font-weight="500"
    font-stretch="normal"
    units-per-em="1024"
    panose-1="2 0 6 3 0 0 0 0 0 0"
    ascent="896"
    descent="-128"
    x-height="792"
    bbox="0 -224 1843 896.054"
    underline-thickness="0"
    underline-position="0"
    unicode-range="U+0078-E8E4"
  />
<missing-glyph 
 />
    <glyph glyph-name=".notdef" 
 />
    <glyph glyph-name=".notdef" 
 />
    <glyph glyph-name=".null" horiz-adv-x="0" 
 />
    <glyph glyph-name="nonmarkingreturn" horiz-adv-x="341" 
 />
    <glyph glyph-name="x" unicode="x" horiz-adv-x="1001" 
d="M281 543q-27 -1 -53 -1h-83q-18 0 -36.5 -6t-32.5 -18.5t-23 -32t-9 -45.5v-76h912v41q0 16 -0.5 30t-0.5 18q0 13 -5 29t-17 29.5t-31.5 22.5t-49.5 9h-133v-97h-438v97zM955 310v-52q0 -23 0.5 -52t0.5 -58t-10.5 -47.5t-26 -30t-33 -16t-31.5 -4.5q-14 -1 -29.5 -0.5
t-29.5 0.5h-32l-45 128h-439l-44 -128h-29h-34q-20 0 -45 1q-25 0 -41 9.5t-25.5 23t-13.5 29.5t-4 30v167h911zM163 247q-12 0 -21 -8.5t-9 -21.5t9 -21.5t21 -8.5q13 0 22 8.5t9 21.5t-9 21.5t-22 8.5zM316 123q-8 -26 -14 -48q-5 -19 -10.5 -37t-7.5 -25t-3 -15t1 -14.5
t9.5 -10.5t21.5 -4h37h67h81h80h64h36q23 0 34 12t2 38q-5 13 -9.5 30.5t-9.5 34.5q-5 19 -11 39h-368zM336 498v228q0 11 2.5 23t10 21.5t20.5 15.5t34 6h188q31 0 51.5 -14.5t20.5 -52.5v-227h-327z" />
    <glyph glyph-name="jiaju" unicode="&#xe600;" 
d="M341 351h342q36 0 61 25.5t25 60.5v278q0 35 -25 60t-61 25h-342q-35 0 -60 -25t-25 -60v-278q0 -35 25 -60.5t60 -25.5v0zM321 708q0 11 8 19t19 8h328q12 0 20 -8t8 -19v-265q0 -11 -8 -19.5t-20 -8.5h-328q-11 0 -19 8.5t-8 19.5v265zM936 471h-73q-37 0 -65.5 -26.5
t-28.5 -61.5v-101q-15 5 -28 5h-457q-13 0 -27 -5v101q0 37 -24.5 62.5t-58.5 25.5h-75q-37 0 -68 -27t-31 -61v-444q0 -34 31 -66.5t68 -32.5h93v-64h64v64h512v-64h64v64h104q35 0 61.5 31.5t26.5 67.5v444q0 37 -26.5 62.5t-61.5 25.5v0zM257 196q0 11 8 19t19 8h457
q12 0 20 -8t8 -19v-73q0 -11 -8 -19t-20 -8h-457q-11 0 -19 8t-8 19v73zM960 -56q0 -14 -8 -27.5t-16 -13.5h-837q-10 0 -22.5 14.5t-12.5 26.5v439q0 11 11.5 20.5t23.5 9.5h69q11 0 18 -9t7 -21v-356h640v85v0v139v0v132q0 10 11.5 20t24.5 10h67q11 0 17.5 -9t6.5 -21
v-439v0zM960 -56z" />
    <glyph glyph-name="yonghu" unicode="&#xe642;" 
d="M539 -126q-149 0 -274 45q-46 17 -76 35q-29 18 -29 29v0v1q11 47 27 96q32 101 57 113q69 34 188 86l1 70q-29 27 -38 91h-1q-23 0 -26 45q0 2 -1 10q-5 44 5 55q3 3 7 4q-7 59 -5 79q4 49 45 86q45 39 109 43v0v0q73 -3 114 -44q34 -33 39 -85q2 -19 -6 -79q5 -1 8 -4
q9 -11 4 -56q0 -7 -1 -9q-2 -45 -26 -45v0q-10 -64 -38 -90v-70q22 -10 48 -21q97 -45 145 -71q43 -25 72 -160q6 -29 9 -50l1 -2l-2 -2q-30 -27 -144.5 -63.5t-211.5 -36.5zM170 -18q3 -7 26 -21q30 -17 75 -33q123 -43 268 -43q95 0 216 38q99 31 131 57q-4 21 -9 46
q-28 131 -67 153q-47 26 -144 70q-32 15 -51 23l-3 1l-1 81l2 2q3 2 8.5 8t15 29t13.5 54l1 5l6 -1q2 -1 3 -1q14 0 16 35q0 3 1 11q5 40 -2 47q-1 1 -3 1h-1l-7 -1l1 7q8 63 6 82q-1 11 -4 22.5t-12.5 29.5t-24 31.5t-41 24t-61.5 12.5q-61 -4 -100.5 -40t-43.5 -80
q-2 -20 6 -82l1 -7l-7 1h-2q-2 0 -3 -1q-6 -7 -2 -47q1 -8 1 -11q2 -35 16 -35q2 0 4 1l5 1l1 -6q4 -30 14 -53t15 -29t8 -8l2 -2v-2l-1 -80l-3 -1q-117 -52 -190 -87q-21 -10 -52 -107q-15 -46 -27 -95z" />
    <glyph glyph-name="guanbi" unicode="&#xe601;" 
d="M578 300l410 409q14 14 14 33.5t-14 33t-33.5 13.5t-32.5 -13l-410 -410l-410 410q-13 13 -32.5 13t-33.5 -13.5t-14 -33t14 -33.5l410 -409l-409 -409q-14 -13 -14 -32.5t14 -33.5t33.5 -14t33.5 14l408 409l408 -409q14 -14 33.5 -14t33 14t13.5 33.5t-13 32.5z" />
    <glyph glyph-name="yaoqing" unicode="&#xe60e;" 
d="M802 474q0 115 -80 197t-193 82q-112 0 -192 -82t-80 -197q0 -83 43.5 -151.5t114.5 -102.5q-120 -34 -213.5 -133.5t-135.5 -240.5q-3 -10 2 -19t15 -13q4 -1 8 -1q19 0 24 19q48 158 162 256t252 98q53 0 105 -16q10 -3 19.5 2t12.5 15t-2 19.5t-15 12.5l-5 1
q71 34 114.5 102.5t43.5 151.5zM529.5 245q-91.5 0 -156.5 67t-65 161.5t65 161.5t156.5 67t156.5 -67t65 -161.5t-65 -161.5t-156.5 -67zM796 137q-2 2 -4.5 1t-2.5 -4v-107h-183q-5 0 -8.5 -3.5t-3.5 -8.5v-105q0 -4 3.5 -7.5t8.5 -3.5h183v-107q0 -3 2.5 -4t4.5 1
l160 166q3 3 3 8t-3 8l-160 166v0v0z" />
    <glyph glyph-name="star" unicode="&#xe603;" 
d="M322 264l1 -1zM306 264zM531 226zM314 234zM892 405q-3 12 -13 19t-22 7l-234 5l-77 219q-9 25 -35 25q-12 0 -22 -7t-13 -18l-77 -219l-234 -5q-12 0 -22 -7t-13 -19q-9 -25 13 -41l186 -140l-68 -221q-7 -26 14.5 -41.5t43.5 -0.5l192 132l192 -132q10 -7 22 -7t22 7
q21 16 13 42l-67 221l186 140q21 16 13 41zM860 388l-195 -146q-8 -6 -5 -17l71 -231q1 -5 -2.5 -7.5t-7.5 -0.5l-201 139q-4 2 -9 2t-9 -2l-201 -139q-4 -2 -7.5 0.5t-2.5 7.5l71 231q3 11 -6 17l-195 146q-3 3 -2 7.5t6 4.5l245 5q11 1 14 11l81 228q1 4 6 4t6 -4l81 -228
q3 -10 14 -11l245 -5q4 0 5.5 -4.5t-2.5 -7.5v0z" />
    <glyph glyph-name="touxiang" unicode="&#xe62c;" 
d="M512 792q-102 0 -195.5 -40t-161 -107.5t-107.5 -161t-40 -195.5t40 -195.5t107.5 -161t161 -107.5t195.5 -40t195.5 40t161 107.5t107.5 161t40 195.5t-40 195.5t-107.5 161t-161 107.5t-195.5 40v0zM808 -68q-15 8 -83.5 26.5t-82.5 27.5q-20 13 -20 121l20 17
q6 47 14.5 63.5t18.5 41.5t16 42l6 17q20 15 20 40q0 12 -5 22t-10 14l-5 5q7 71 7 120q0 78 -47 120t-136 42q-92 0 -147.5 -40t-55.5 -122q0 -22 4 -52t8 -49l4 -19q-20 -15 -20 -41q0 -11 5 -21t10 -15l5 -4q24 -73 40 -101q5 -7 8.5 -22.5t4.5 -27.5l1 -13l20 -17
q1 -12 2 -29.5t-4 -50.5t-18 -41q-14 -9 -84.5 -28.5t-84.5 -27.5q5 -5 22 -17.5t62 -35.5t92 -37q-151 40 -248.5 164t-97.5 284q0 94 36.5 180t98.5 148t148 98.5t180 36.5t180 -36.5t148 -98.5t98.5 -148t36.5 -180q0 -105 -44.5 -198t-122.5 -158v0zM433 -168
q-15 2 -33 7q8 -2 33 -7v0zM433 -168z" />
    <glyph glyph-name="sauna" unicode="&#xe613;" 
d="M539 32q-10 3 -13 -6q-10 -26 -34 -42.5t-52 -16.5q-4 0 -7 -3t-3 -7t3 -7t7 -3q35 0 63.5 20t41.5 52q3 9 -6 13zM532 59v-3.5v-4.5q-1 -9 9 -11h1q9 0 10 10v9q0 4 -3 7.5t-7 3.5t-7 -3.5t-3 -7.5zM539 278v361h-2q-5 46 -39.5 77.5t-81 31.5t-81 -31.5t-39.5 -77.5h-2
v-361q-49 -31 -78.5 -83t-29.5 -113q0 -95 67.5 -162.5t163 -67.5t163 67.5t67.5 162.5q0 61 -29 113t-79 83zM416.5 -107q-78.5 0 -134 55.5t-55.5 133.5q0 56 29.5 102.5t78.5 69.5v73h56q12 0 12 7t-12 7h-56v40h56q12 0 12 7t-12 7h-56v41h97q12 0 12 7t-12 7h-97v40h56
q12 0 12 7t-12 7h-56v40h56q12 0 12 7t-12 7h-56v81h3q5 29 27 48.5t51.5 19.5t51.5 -19.5t27 -48.5h3v-385q49 -23 79 -69.5t30 -102.5q0 -78 -56 -133.5t-134.5 -55.5zM716 694q0 5 -4 9t-10 4h-14q-5 0 -9 -4t-4 -9q-28 -22 -28 -54q0 -9 14 -32t14 -36q0 -11 -14 -33.5
t-14 -34.5t14 -34.5t14 -33.5q0 -13 -14 -36t-14 -32q0 -15 7 -28.5t14 -19.5l7 -6q0 -6 4 -10t9 -4h14q6 0 10 4t4 10q-28 22 -28 55q0 9 14 31.5t14 35.5q0 10 -14 33t-14 35t14 34.5t14 33.5q0 13 -14 35.5t-14 31.5q0 15 7 28.5t14 19.5zM797 639q0 15 6.5 28.5
t13.5 19.5l7 7q0 5 -4 9t-10 4h-13q-6 0 -10 -4t-4 -9q-27 -22 -27 -54q0 -9 13.5 -32t13.5 -36q0 -11 -13.5 -33.5t-13.5 -34.5t13.5 -34.5t13.5 -33.5q0 -13 -13.5 -36t-13.5 -32q0 -15 7 -28.5t13 -19.5l7 -6q0 -6 4 -10t10 -4h13q6 0 10 4t4 10q-27 22 -27 55
q0 9 13.5 31.5t13.5 35.5q0 10 -13.5 33t-13.5 35t13.5 34.5t13.5 33.5q0 13 -13.5 35.5t-13.5 31.5z" />
    <glyph glyph-name="zheyang" unicode="&#xe606;" horiz-adv-x="1110" 
d="M538 803h34v-130h-34v130zM292 738l65 -113l-29 -17l-65 113zM83 541l113 -65l-17 -30l-113 65zM0 266h131v-34h-131v34v0zM979 266h130v-34h-130v34zM1026 541l18 -30l-114 -65l-17 30zM817 738l30 -17l-65 -113l-30 17zM328 36q-76 86 -76 200q0 125 88.5 214t214 89
t214.5 -89t89 -214q0 -114 -77 -201l42 -3q69 91 69 204q0 91 -45.5 169t-123 123t-169 45t-169 -45t-122.5 -123t-45 -169q0 -117 73 -210zM1109 -79q-101 77 -245.5 118.5t-308.5 41.5t-309 -41.5t-246 -118.5v-43q8 7 11 9q95 75 239 117.5t304.5 42.5t305 -42.5
t239.5 -117.5q2 -2 10 -9v43z" />
    <glyph glyph-name="yifu" unicode="&#xe635;" 
d="M317 -83q-20 0 -34.5 14t-14.5 34v369l-40 -42q-14 -14 -35 -14q-20 0 -33 13l-115 111q-15 14 -15.5 34t13.5 34l181 187q25 26 40 26h113q34 0 42 -9l7 -7v-9q0 -34 24 -55.5t62 -21.5t62 21.5t24 54.5v9l7 8v0q8 9 42 9h113q15 0 40 -26l181 -187q13 -14 13 -34.5
t-15 -33.5l-115 -111q-13 -14 -33 -14q-21 0 -35 15l-40 42l-1 -369q0 -20 -14 -34t-34 -14h-390v0zM283 399q12 0 21 -9t9 -27v-398q0 -3 4 -3h390q4 0 4 3v398q0 18 9 27t21 9q14 0 26 -13l61 -63q2 -2 3 -2t2 2l115 111q1 1 1 2.5t-1 2.5l-180 187q-7 7 -13 12h-108h-6
q-7 -46 -42.5 -73.5t-86.5 -27.5q-52 0 -88 29q-35 27 -42 72h-5h-108q-6 -5 -13 -12l-180 -187q-1 -1 -1 -2.5t1 -2.5l115 -111q1 -2 2 -2t3 2l61 63q12 13 26 13z" />
    <glyph glyph-name="down" unicode="&#xe623;" 
d="M240 464l268 -289l268 289h-536z" />
    <glyph glyph-name="gou" unicode="&#xe63c;" 
d="M955 300q0 -90 -35 -172t-94.5 -141t-141.5 -94.5t-172 -35.5t-172 35.5t-141 94.5t-94.5 141t-35.5 172t35.5 172t94.5 141t141 94.5t172 35.5t172 -35.5t141.5 -94.5t94.5 -141t35 -172zM771 442l-69 69l-287 -288l-93 94l-69 -68l159 -160l3 3l3 -3z" />
    <glyph glyph-name="lvyou" unicode="&#xe705;" 
d="M703 229l-172 -192l18 -25h125h222zM495 12q-8 10 -11 15q0 1 -0.5 2t-1.5 2q-5 8 -9 16v1v0q-14 27 -26 58q0 1 -0.5 2.5l-0.5 1.5q-4 9 -6 16q0 1 -1 3t-1 3q-3 8 -5 13q0 2 -1 5q0 2 -1 2q-2 9 -4 13q-47 161 -38 204q1 1 1 4q32 4 74 -3q18 -2 44 -11.5t41.5 -14.5
t18.5 0q1 3 -10.5 16.5t-31 29.5t-35.5 23q16 3 34 4t28.5 0.5t27.5 -1t21 -0.5q29 -1 30 0q2 2 -4.5 7.5t-17 11t-20.5 8.5q-47 15 -90 5q-50 -11 -103 -47l0.5 1l0.5 1q6 16 16 31t19.5 24t24 19t22.5 14t22.5 11t16.5 8q23 12 23 13q0 5 -19.5 7.5t-34.5 1.5
q-48 -5 -72 -32q-15 -18 -26 -43q-4 55 -22 88q-9 15 -21.5 25t-25.5 13t-20 4t-13 1q-11 -1 2 -40q4 -10 9.5 -20.5t15.5 -27t16 -26.5q6 -12 21 -38q-25 30 -53 43q-33 16 -80 1q-9 -3 -20 -9t-18.5 -12t-6.5 -8q0 -2 26 -3q3 0 19 -1t25 -1.5t26 -3.5t29.5 -8t27.5 -14
t28 -22q0 -1 2 -2q-58 21 -107 21q-44 1 -87 -25q-8 -5 -17 -12.5t-14.5 -14t-2.5 -8.5q1 0 29 7q4 1 21 5.5t27 7t30 5.5t35.5 3.5t36.5 -0.5t41 -6q-53 -11 -76 -55q-8 -16 -9 -43.5t2.5 -49t7.5 -21.5q3 -1 6.5 5t7.5 16.5t8.5 23t10.5 27t12 24.5q23 38 47 60
q-2 -28 -2 -51t2 -46t3 -36t6 -36.5t6.5 -32t8.5 -37.5v0q9 -39 21 -77l0.5 -0.5l0.5 -0.5q2 -5 4 -12v-0.5v-0.5l10 -24h69v0zM408 395q6 2 15.5 4.5t31.5 2t37 -9.5q3 -2 1 -6q-1 -1 -3 -1h-2q-14 8 -34.5 8.5t-29.5 -2t-14 -3.5q-3 -2 -4.5 2t2.5 5zM333 354
q-4 -3 -11 -9t-19 -22.5t-16 -33.5q0 -3 -3 -3h-1q-4 1 -3 5q3 18 16 35.5t20 24t12 9.5q3 2 5.5 -1t-0.5 -5zM371 424h-1q-3 0 -3 4q-2 32 -17 66t-23 45t-14 18q-3 3 0 5.5t5 0.5q7 -8 16 -20t24 -47t16 -68q1 -3 -3 -4zM287 12h101q-18 28 -33 80zM461 203q2 -8 5.5 -30
t5 -29t6 -22t10 -26.5t13.5 -24.5h1l118 139l-78 90z" />
    <glyph glyph-name="gerenzhanghu" unicode="&#xe604;" 
d="M862 -107q2 -6 2 -10q0 -14 -9.5 -23t-22.5 -9h-640q-13 0 -22.5 9t-9.5 23q0 4 2 10h-2v11q0 108 60 196.5t157 128.5q-60 35 -96 96t-36 134q0 110 78.5 188t188.5 78t188.5 -78t78.5 -188q0 -73 -36 -134t-96 -96q97 -40 157 -128.5t60 -196.5v-11h-2zM715 459
q0 84 -59.5 143t-143.5 59t-143.5 -59t-59.5 -143t59.5 -143.5t143.5 -59.5t143.5 59.5t59.5 143.5zM534 192h-44q-110 0 -188 -78t-78 -188v-11h576v11q0 110 -78 188t-188 78z" />
    <glyph glyph-name="gou1" unicode="&#xe641;" horiz-adv-x="1025" 
d="M512 812q-104 0 -199 -40.5t-163.5 -109t-109 -163.5t-40.5 -199t40.5 -199t109 -163.5t163.5 -109t199 -40.5t199 40.5t163.5 109t109 163.5t40.5 199t-40.5 199t-109 163.5t-163.5 109t-199 40.5zM806 433l-331 -331h-1q-11 -12 -27 -13.5t-29 6.5q-5 3 -9 7v0
l-191 190q-13 14 -13 33t13.5 32.5t32.5 13.5t33 -13l158 -158l298 298q14 14 33 14t32.5 -13.5t13.5 -33t-13 -32.5z" />
    <glyph glyph-name="lingshi" unicode="&#xe625;" 
d="M794.5 587.5q-88.5 88.5 -213.5 88.5t-213.5 -88.5t-88.5 -213.5q0 -117 79 -203l-208 -208q-6 -6 -6.5 -15t5.5 -15t15 -6t16 6l208 209q84 -70 193 -70q125 0 213.5 88.5t88.5 213.5t-88.5 213.5zM765.5 189.5q-76.5 -76.5 -184.5 -76.5t-184.5 76.5t-76.5 184.5
t76.5 184.5t184.5 76.5t184.5 -76.5t76.5 -184.5t-76.5 -184.5zM581 517q-59 0 -101 -42t-42 -101t42 -101t101 -42t101 42t42 101t-42 101t-101 42zM581 272q-42 0 -72 30t-30 72t30 72t72 30t72 -30t30 -72t-30 -72t-72 -30z" />
    <glyph glyph-name="gerenrenzheng" unicode="&#xe67d;" 
d="M512 -212q-139 0 -257 68.5t-186.5 186.5t-68.5 257t68.5 257t186.5 186.5t257 68.5t257 -68.5t186.5 -186.5t68.5 -257t-68.5 -257t-186.5 -186.5t-257 -68.5zM512 755q-93 0 -177 -36t-145 -97t-97 -145t-36 -177t36 -177t97 -145t145 -97t177 -36t177 36t145 97
t97 145t36 177t-36 177t-97 145t-145 97t-177 36zM853 101h-57q0 59 -41.5 100.5t-100.5 41.5t-100.5 -41.5t-41.5 -100.5h-57q0 57 29.5 104t77.5 73q-50 43 -50 107q0 59 41.5 101t100.5 42t100.5 -42t41.5 -101q0 -65 -50 -107q49 -26 78 -73t29 -104zM654.5 471
q-35.5 0 -60.5 -25t-25 -60.5t25 -60.5t60.5 -25t60.5 25t25 60.5t-25 60.5t-60.5 25zM199 300h256v-57h-256v57zM199 442h256v-57h-256v57zM398 101h-199v57h199v-57z" />
    <glyph glyph-name="weibiaoti1" unicode="&#xe605;" 
d="M154 0q-33 0 -33 -8.5t33 -8.5v17zM512 684q-69 0 -140 -39.5t-121.5 -97.5t-83 -123.5t-32.5 -116.5q0 -37 1.5 -62.5t5.5 -55.5t12 -51t22 -43.5t33.5 -37.5t47.5 -29.5t64.5 -22.5t84.5 -13t106 -5t106 5t84.5 13t64.5 22.5t47.5 29.5t33.5 37.5t22 43.5t12 51
t5.5 55.5t1.5 62.5q0 51 -32.5 116.5t-83 123.5t-121.5 97.5t-140 39.5zM673.5 853.5q-13.5 7.5 -87.5 7.5h-148q-74 0 -87.5 -7.5t-13.5 -36.5q0 -13 11.5 -33t27.5 -36q17 -17 58 -31.5t78 -14.5t78 14.5t58 31.5q16 16 27.5 36t11.5 33q0 29 -13.5 36.5zM521 481l-80 -81
h-59l79 81h60zM510 354l-67 -114h-53l67 114h-68v28h257v-106l-42 -36h-100v28l92 1v85h-86zM527 481h60l79 -81h-60z" />
    <glyph glyph-name="renzheng" unicode="&#xe6c6;" 
d="M939 747l-42 1q-9 0 -29.5 1.5t-70.5 12t-94 28.5q-45 18 -87.5 40.5t-57.5 33t-21 14.5l-25 18l-26 -18q-65 -48 -165 -88q-44 -18 -94 -28.5t-70.5 -12t-29.5 -1.5l-42 -1v-430q0 -63 29.5 -129.5t77.5 -121.5t104.5 -99.5t114 -69.5t101.5 -25t101.5 25t114 69.5
t104.5 99.5t77.5 121.5t29.5 129.5v430v0zM464 196l-181 155l56 65l116 -99l221 255l65 -57l-277 -319v0z" />
    <glyph glyph-name="sousuo" unicode="&#xe6c0;" 
d="M702 229v0l-25 26l-2 2q-7 -8 -13 -14q-72 -72 -174 -72t-173.5 71.5t-71.5 173.5t71.5 173.5t173.5 71.5t174 -72q55 -54 68 -130.5t-18 -143.5v0l-1 -2q-4 -8 -1 -15.5t10 -10.5q10 -4 18 1q5 3 8 8q5 10 9 21q29 75 11.5 157.5t-77.5 142.5q-83 83 -201 83t-201 -83
t-83 -201t83 -201q80 -79 192.5 -83t195.5 70l121 -121q5 -6 13.5 -6t14 6t5.5 14t-6 14z" />
    <glyph glyph-name="shoujiyanzheng" unicode="&#xe71a;" 
d="M753 896h-482q-48 0 -81 -33.5t-33 -80.5v-796q0 -47 33 -80.5t81 -33.5h482q48 0 81 33.5t33 80.5v796q0 47 -33 80.5t-81 33.5zM804 -14q0 -24 -13.5 -37.5t-37.5 -13.5h-482q-24 0 -37.5 13.5t-13.5 37.5v796q0 24 13.5 37.5t37.5 13.5h482q24 0 37.5 -13.5
t13.5 -37.5v-796zM690 704h-342q-11 0 -19.5 -10.5t-8.5 -22.5t8.5 -21.5t19.5 -9.5h342q11 0 19.5 9.5t8.5 21.5t-8.5 22.5t-19.5 10.5zM512 157q-29 0 -50 -21t-21 -50.5t21 -50t50 -20.5t50 20.5t21 50t-21 50.5t-50 21zM490 354l-112 112l-39 -39l151 -151l217 218
l-39 38z" />
    <glyph glyph-name="sunset" unicode="&#xe734;" 
d="M1007 256h-66q19 63 19 128q0 122 -60 225t-163 163t-225 60t-225 -60t-163 -163t-60 -225q0 -65 19 -128h-66q-17 65 -17 128q0 139 68.5 257t186.5 186.5t257 68.5t257 -68.5t186.5 -186.5t68.5 -257q0 -62 -17 -128zM32 192h960q13 0 22.5 -9.5t9.5 -22.5t-9.5 -22.5
t-22.5 -9.5h-960q-13 0 -22.5 9.5t-9.5 22.5t9.5 22.5t22.5 9.5zM128 64h768q13 0 22.5 -9.5t9.5 -22.5t-9.5 -22.5t-22.5 -9.5h-768q-13 0 -22.5 9.5t-9.5 22.5t9.5 22.5t22.5 9.5zM352 -64h320q13 0 22.5 -9.5t9.5 -22.5t-9.5 -22.5t-22.5 -9.5h-160v0v0h-160
q-13 0 -22.5 9.5t-9.5 22.5t9.5 22.5t22.5 9.5z" />
    <glyph glyph-name="shopping" unicode="&#xe64b;" 
d="M412 184q-17 0 -29 -12t-12 -29t12 -28.5t29 -11.5t28.5 11.5t11.5 28.5t-11.5 29t-28.5 12zM692 184q-17 0 -29 -12t-12 -29t12 -28.5t29 -11.5t29 11.5t12 28.5t-12 29t-29 12zM732 244h-325q-7 0 -12 5t-6 12l-34 240l-19 112q-3 22 -20 37t-39 15h-26q-8 0 -14 -6
t-6 -14.5t6 -14.5t14 -6h26q6 0 11.5 -5t6.5 -12l19 -112l34 -240q3 -22 20 -37t39 -15v0h325q8 0 14 6t6 14.5t-6 14.5t-14 6zM778 587q-16 18 -40 18h-347q-8 0 -14 -6t-6 -14.5t6 -14.5t14 -6h347q5 0 9 -4q6 -7 5 -19l-32 -180q0 -7 -5.5 -11.5t-12.5 -4.5l-272 -21
q-9 0 -14.5 -6.5t-4.5 -15.5q1 -8 6.5 -13.5t14.5 -5.5h1l270 20q22 0 39 15t19 37l32 180q4 31 -15 52z" />
    <glyph glyph-name="canyin" unicode="&#xe644;" 
d="M961 326q0 35 -16 60.5t-42 31.5q23 29 23 69q0 52 -31.5 105t-87.5 96q-124 94 -292 94t-292 -94q-56 -43 -88 -96t-32 -105q0 -38 25 -69q-26 -5 -43 -31t-17 -61q0 -19 1 -31t4.5 -30.5t13.5 -30.5t26 -17q4 -14 11 -24q-2 -5 -2 -7v-84q0 -47 33.5 -79.5t80.5 -32.5
h557q47 0 79.5 32.5t32.5 79.5v84v2v2q9 12 12 27q15 5 25 17t14 30t4.5 30t0.5 32zM247 655q114 86 268 86t267 -86q49 -37 76 -81t27 -86q0 -33 -20 -50t-48 -17h-605q-26 0 -47 18t-21 49q0 42 27.5 86t75.5 81zM140 380h72h605h73q12 0 21.5 -17t9.5 -36q0 -44 -6 -58
t-20 -15q-13 1 -26 11q-8 8 -23 26q-12 13 -18 20q-28 31 -56 33h-3q-15 0 -29.5 -8.5t-23 -17t-22.5 -24.5q-4 -5 -6 -7q-30 -33 -47 -33h-3q-14 2 -46 39q-4 3 -5 5q-12 14 -20.5 22.5t-22 16t-27.5 7.5h-0.5h-0.5v0q-14 0 -28.5 -8t-23 -16t-22.5 -24q-38 -41 -58 -42
q-9 0 -19.5 6.5t-17 13.5t-19.5 20q-24 26 -37 36q-18 13 -36 14h-5q-23 0 -39.5 -14.5t-35.5 -39.5q-27 -35 -42 -36q-12 1 -18 15t-6 58q0 19 9 36t22 17zM848 208h-668q-14 0 -21 9q19 8 47 46l1.5 1.5l0.5 0.5v1q10 12 15.5 18t13.5 12t16 7q7 -1 16 -8q8 -7 26 -27
q16 -17 25 -26.5t27 -19t35 -9.5h1.5h0.5h0.5h0.5q18 0 35.5 9.5t27 18.5t24.5 27q31 34 44 35q12 -1 40 -31q2 -3 3 -5q14 -16 22 -24.5t23 -18.5t30 -11h7v0v0q36 0 77 46q2 3 7 8q32 36 44 36h2q10 -2 26 -19q5 -5 13 -15q19 -24 33 -35q14 -13 31 -18q-6 -8 -26 -8z
M864 102q0 -30 -20.5 -50.5t-50.5 -20.5h-557q-30 0 -51.5 20.5t-21.5 50.5v64h17h668h16v-64zM416 634q9 0 15 6t6 15t-6 15.5t-15 6.5t-15.5 -6.5t-6.5 -15.5t6.5 -15t15.5 -6zM307 519q9 0 15.5 6.5t6.5 15t-6.5 15t-15.5 6.5t-15 -6.5t-6 -15t6 -15t15 -6.5zM618.5 634
q8.5 0 15 6t6.5 15t-6.5 15.5t-15 6.5t-15 -6.5t-6.5 -15.5t6.5 -15t15 -6zM517 519q9 0 15.5 6.5t6.5 15t-6.5 15t-15.5 6.5t-15 -6.5t-6 -15t6 -15t15 -6.5zM727 519q9 0 15.5 6.5t6.5 15t-6.5 15t-15.5 6.5t-15 -6.5t-6 -15t6 -15t15 -6.5z" />
    <glyph glyph-name="jingdian" unicode="&#xe645;" 
d="M932 66h-4q-37 62 -14 115q13 30 36 47q13 9 7 24t-22 13q-14 -2 -36 -8q-41 90 -13 181q15 47 39 76q8 10 2.5 21.5t-18.5 12.5q-32 0 -71 -6q-61 -10 -99 -33q-4 7 -7 12q-101 161 -305 248q-102 44 -185 56q-15 2 -21.5 -12t5.5 -24q8 -7 23 -22.5t48 -65.5t55 -105
q9 -24 17 -50q-40 30 -89 46.5t-69 19t-33 2.5q-14 0 -19 -12.5t3 -22.5q16 -17 37 -54.5t36 -85.5q25 -80 23 -168q0 -5 -1 -12q-91 43 -168 55q-15 2 -21.5 -11.5t4.5 -23.5q3 -3 9 -9.5t21 -26.5t28 -43t27.5 -59t22.5 -75h-90q-8 0 -14.5 -6t-6.5 -14v-87
q0 -8 6.5 -13.5t14.5 -5.5h842q9 0 14.5 5.5t5.5 13.5v87q0 8 -5.5 14t-14.5 6zM820 188q30 12 62 22l-5 -10q-28 -64 5 -134h-79q15 55 17 122zM870 505q-14 -25 -22 -53q-34 -103 11 -206q-19 -6 -39 -14q-5 128 -61 241q38 25 111 32zM299 771q57 -16 112 -39
q192 -83 286 -232q88 -141 82 -308q-2 -70 -19 -126h-397q67 156 70 301q3 129 -44 246q-34 87 -90 158zM222 567q100 -20 163 -91q8 -54 7 -109q-4 -145 -74 -301h-55q34 107 36 206q2 95 -26 182q-19 62 -51 113zM254 215q-8 -71 -33 -145q-21 105 -80 189q59 -17 113 -44
zM910 -19h-800v45h800v-45z" />
    <glyph glyph-name="zhusu" unicode="&#xe646;" 
d="M311.5 740q-28.5 0 -49 -20t-20.5 -49v-132h138v132q0 29 -20 49t-48.5 20zM339 580h-55v91q0 12 8 20t19.5 8t19.5 -8t8 -20v-91zM503.5 740q-28.5 0 -49 -20t-20.5 -49v-132h139v132q0 29 -20.5 49t-49 20zM532 580h-57v91q0 12 8.5 20t20 8t20 -8t8.5 -20v-91z
M311.5 495q-28.5 0 -49 -20.5t-20.5 -48.5v-296h138v296q0 28 -20 48.5t-48.5 20.5zM339 172h-55v254q0 11 8 19.5t19.5 8.5t19.5 -8.5t8 -19.5v-254zM503.5 495q-28.5 0 -49 -20.5t-20.5 -48.5v-296h139v296q0 28 -20.5 48.5t-49 20.5zM532 172h-57v254q0 11 8.5 19.5
t20 8.5t20 -8.5t8.5 -19.5v-254zM939 66h-49v551q0 47 -32.5 80.5t-79.5 33.5h-110q-6 41 -38 69t-75 28h-293q-47 0 -80.5 -34t-33.5 -80v-648h-61q-9 0 -15.5 -6t-6.5 -15v-87q0 -8 6.5 -13.5t15.5 -5.5h852q9 0 14 5.5t5 13.5v87q0 9 -5.5 15t-13.5 6zM849 617v-551h-181
v624h110q30 0 50.5 -21.5t20.5 -51.5zM189 714q0 29 21.5 51t51.5 22h293q30 0 50.5 -21.5t20.5 -51.5v-648h-437v648zM917 -20h-811v46h811v-46z" />
    <glyph glyph-name="shoujirenzheng" unicode="&#xe689;" 
d="M498 267l-40 -40l124 -123l186 187l-40 39l-146 -146zM690 440q-87 20 -175 -1l-122 -29v-228q0 -39 19.5 -73t52.5 -53l139 -82l144 82q35 19 55 53.5t20 74.5v226zM782 184q0 -29 -14.5 -53.5t-39.5 -39.5l-124 -70l-118 70q-24 14 -38 38.5t-14 52.5v195l91 22
q78 19 156 1l101 -23v-193zM388 102h-99v591h387v-223l24 -4l17 -4v267q0 17 -12.5 29.5t-29.5 12.5h-385q-17 0 -29.5 -12.5t-12.5 -29.5v-627v0v-54q0 -19 14 -33.5t34 -14.5h214q0 1 -9 5t-20 9.5t-26 14.5t-27.5 19.5t-23.5 24.5t-16 29zM554 740q10 0 10 -10t-10 -10
t-10 10t10 10zM447 737h77q7 0 7 -7.5t-7 -7.5h-77q-8 0 -8 7.5t8 7.5z" />
    <glyph glyph-name="hufu" unicode="&#xe654;" horiz-adv-x="1081" 
d="M338 522q-1 25 -1 108q2 71 -37 146t-86 104q-44 27 -81 7q-27 -14 -45 -45t-24 -67t-8 -56t-2 -34v-170q-53 -41 -53 -107v-400q0 -56 39.5 -95.5t95.5 -39.5h130q56 0 96 39.5t40 95.5v400q0 35 -17 65.5t-47 48.5v0zM165 833q1 0 4 -2t10 -6.5t15 -9.5q28 -28 53 -82
t27 -103l1 -87q-8 1 -9 1h-130q-2 0 -8.5 -1t-11.5 -1v143q14 123 49 148zM266 -65h-130q-28 4 -48.5 24.5t-24.5 48.5v400q4 28 24.5 48.5t48.5 24.5h130q28 -4 48.5 -24.5t25.5 -48.5v-400q-5 -28 -25.5 -48.5t-48.5 -24.5zM116 410q-7 0 -12 -5t-5 -12v-326q0 -7 5 -12
t12 -5t12 5t5 12v326q0 7 -5 12t-12 5v0zM858 489l167 255q7 11 5 23.5t-12 21.5q-119 102 -282 106q-90 3 -172.5 -27t-145.5 -89q-10 -8 -11.5 -21t6.5 -23l167 -238q6 -9 19 -12q-12 -20 -14 -41l-43 -465q-4 -43 24.5 -74t71.5 -31h165q43 0 71 31t25 74l-43 465
q-2 16 -10 33q8 5 12 12v0zM480 749q106 75 242 84h12q123 -12 223 -78l-140 -211h-45l11 89q1 7 -3.5 12.5t-11.5 6t-12.5 -3.5t-6.5 -11l-11 -93h-39l-14 93q-1 7 -6.5 11t-12.5 3t-11 -6.5t-3 -12.5l12 -88h-44l-140 205v0zM792 397h-143l4 40q1 15 13.5 26t26.5 11h55
q14 0 26.5 -11t13.5 -26l4 -40v0zM803 -64h-165q-20 4 -27 15q-3 5 -4.5 10.5t-2.5 8.5v3l37 390h159l37 -390q0 -9 -7 -22q-7 -7 -13.5 -10.5t-9.5 -3.5z" />
    <glyph glyph-name="jiadian" unicode="&#xe60c;" 
d="M896 680h-769q-16 0 -27.5 -11.5t-11.5 -27.5v-460q0 -16 11.5 -27.5t27.5 -11.5h769q16 0 28 11.5t12 27.5v460q0 16 -12 27.5t-28 11.5zM899 231q0 -8 -6 -14t-14 -6h-735q-8 0 -14 6t-6 14v398q0 8 6 14t14 6h735q8 0 14 -6t6 -14v-398zM731 63h-137l-12 36q0 4 -8 4
h-125q-8 0 -8 -4l-12 -36h-137q-3 0 -9.5 -7t-12.5 -14l-5 -7q0 -5 3.5 -8.5t7.5 -3.5h471q4 0 7.5 3.5t3.5 8.5q1 0 -5 7t-12.5 14t-9.5 7v0z" />
    <glyph glyph-name="fukuan" unicode="&#xe63a;" 
d="M960 -96h-896q-27 0 -45.5 18.5t-18.5 45.5v608v224q0 27 18.5 45.5t45.5 18.5h672q27 0 45.5 -18.5t18.5 -45.5v-160h160q27 0 45.5 -18.5t18.5 -45.5v-608q0 -26 -19 -45t-45 -19zM736 736q0 26 -19 45t-45 19h-544q-26 0 -45 -19t-19 -45v-96h672v2.5v6v7.5v8.5v7.5
v64zM960 512q0 27 -18.5 45.5t-45.5 18.5h-768q-26 0 -45 -19t-19 -45v-480q0 -26 19 -45t45 -19h768q26 0 45 19t19 45v480zM799.5 193q-39.5 0 -68 28t-28.5 67.5t28.5 68t68 28.5t67.5 -28.5t28 -68t-28 -67.5t-67.5 -28zM832 320h-64v-64h64v64z" />
    <glyph glyph-name="shangjiarenzheng" unicode="&#xe619;" horiz-adv-x="1025" 
d="M871 733q-73 0 -135 10.5t-97 24t-60.5 29.5t-34 24t-9.5 11h-45q-1 -3 -9.5 -11.5t-34.5 -24t-61 -29.5t-97 -24t-136 -10h-24v-492q0 -36 16 -70t41 -60.5t58.5 -51t67 -42t68 -32.5t59.5 -23.5t44.5 -15t20.5 -6.5l9 -5l10 5q1 0 20 6.5t44.5 15t60 23.5t68 32.5
t66.5 42t58 51t41 60.5t16 70v492h-25zM847 241q0 -36 -21.5 -69.5t-53 -57.5t-73.5 -46.5t-76 -35.5l-68 -26t-43 -17q-15 7 -56.5 24.5t-73 31t-72.5 36.5t-68 45t-46 52.5t-19 62.5v443q128 3 215.5 33t119.5 64q32 -34 119.5 -64t215.5 -33v-443zM477 631q13 -22 21 -38
h-208v-34h447v34h-196q-16 30 -29 55zM623 535l-34 21q-20 -34 -43 -65h-103l24 17q-16 22 -40 50l-27 -19q18 -24 34 -48h-114v-318h34v285h315v-208q0 -34 -29 -34q-23 0 -60 4q3 -13 7 -41h64q52 0 52 61v251h-116q15 18 36 44zM457 452q-47 -46 -97 -81q8 -8 21 -28
q47 36 100 84zM659 381q-34 27 -102 71l-20 -26q54 -37 99 -75zM604 375h-183v-154h33v25h150v129v0v0zM572 277h-118v67h118v-67z" />
    <glyph glyph-name="yangshenghuo" unicode="&#xe629;" 
d="M911 372q-38 46 -105 79q-11 6 -22 2t-16.5 -14.5t-1.5 -22t14 -16.5q55 -27 84.5 -63t29.5 -74q0 -73 -96 -128q-105 -60 -254.5 -60t-253.5 60q-97 55 -97 127.5t97 127.5q10 6 13.5 17.5t-2.5 22t-17.5 13.5t-22.5 -2q-57 -33 -90 -77q-35 -48 -35 -101.5t35 -101.5
q32 -43 90 -76q118 -67 283 -67t282 67q58 33 91 76q35 48 35 102q0 58 -41 109zM385 368q34 -66 34 -89q0 -12 8.5 -20t20.5 -8v0q12 0 20.5 8.5t8.5 20.5q-1 17 -7.5 38t-13 35.5t-20.5 40.5q-43 84 -45 126q-2 35 9.5 75t19.5 55t14 23q6 10 3.5 21.5t-12.5 18t-22 4
t-18 -12.5q-7 -11 -17 -29.5t-23.5 -66.5t-11.5 -91q1 -25 10.5 -54t17.5 -47t24 -48zM517 368q34 -66 34 -89q0 -12 8.5 -20t20.5 -8v0q12 0 20.5 8.5t8.5 20.5q0 17 -6.5 38t-13.5 35.5t-20 40.5q-44 84 -46 126q-2 34 10 74t20 55.5t13 23.5q6 10 3.5 22t-12.5 18
t-21.5 3.5t-18.5 -12.5q-7 -11 -16.5 -29t-23.5 -66.5t-12 -91.5q2 -25 11 -54t17 -47t24 -48zM664 368q34 -66 34 -89q0 -12 8.5 -20t20.5 -8v0q12 0 20.5 8.5t8.5 20.5q0 17 -7 38t-13.5 35.5t-20.5 40.5q-43 84 -45 126q-2 34 9.5 74t19.5 55.5t14 23.5q6 10 3.5 22
t-12.5 18t-22 3.5t-18 -12.5q-7 -11 -16.5 -29t-23.5 -66.5t-12 -91.5q1 -25 10.5 -54t17.5 -47t24 -48z" />
    <glyph glyph-name="xianzhi" unicode="&#xe614;" 
d="M494 165q8 -5 17 -5v0v0v0h8l5 3l4 2q49 28 82 57t43 64q10 37 -10 73q-24 42 -69 42q-33 0 -63 -23q-31 23 -63 23q-45 0 -70 -42q-20 -36 -10 -73q10 -35 43 -64t83 -57zM429 330q7 13 19 13q10 0 21.5 -7t17.5 -15l24 -36l24 36q5 8 16.5 15t22.5 7t19 -13
q8 -14 4 -28q-9 -35 -86 -80q-77 45 -87 80q-4 14 5 28zM880 633h-75q-12 46 -20 78q-12 45 -55 54q-20 4 -38 0l-105 -29q-126 71 -149 84q-44 24 -84 1q-20 -10 -31 -27v0l-98 -161h-83q-16 0 -28 -11.5t-12 -27.5v-85q0 -16 12 -27.5t28 -11.5h26v-318q0 -49 34.5 -83.5
t83.5 -34.5h438q49 0 83.5 34.5t34.5 83.5v318h38q16 0 27.5 11.5t11.5 27.5v85q0 16 -11.5 27.5t-27.5 11.5zM706 709q7 1 13 -1q7 -1 9 -11q5 -20 12 -47q-15 8 -35 20l-8 25l-24 -7q-5 3 -14 8zM652 633h-187l45 80q57 -32 142 -80zM371 762q5 6 12 10q12 6 27 -3
q12 -6 50 -28l-61 -108h-20l17 32l-51 27l-17 -32l50 -27h-85zM784 152q0 -25 -17.5 -42.5t-42.5 -17.5h-438q-25 0 -42.5 17.5t-17.5 42.5v318h26h532v-318zM861 528h-52h-85h-438h-31h-95v47h701v-47zM379 754l52 -27l-17 -32l-52 27z" />
    <glyph glyph-name="meirong" unicode="&#xe607;" 
d="M887 151l-24 59l-24 -59l-60 -24l60 -25l24 -59l24 59l59 25zM307 214q19 15 41 20t40.5 2.5t33.5 -7.5t24 -10l8 -5q-22 31 -45.5 42t-41 5.5t-31.5 -16t-21.5 -20.5t-7.5 -11v0v0zM542 214q19 15 41.5 20t40.5 2.5t33.5 -7.5t23.5 -10l9 -5q-22 31 -45.5 42t-41 5.5
t-31.5 -16t-22 -20.5t-8 -11v0v0zM220 541l38 94l95 38l-95 38l-38 94l-38 -94l-95 -38l95 -38zM728 -57h-190l-6 46q70 21 113.5 70t64.5 130q17 63 17 122v9q0 16 -3 27t-22 41.5t-60 82.5q-14 -35 -52.5 -63.5t-81 -45t-95.5 -29t-82.5 -17t-55.5 -6.5q-2 0 -3 -1v-1
q-14 -104 30.5 -187t115.5 -116q7 -3 20 -8t16 -6l-6 -47h-187q-72 0 -115 42.5t-43 112.5v336q0 86 30 158l22 52l45 -111q6 -14 19 -14v0q13 0 19 14q4 8 30 76q2 6 6.5 10.5t24.5 13t60 20.5q13 5 13 19q0 13 -14 19q-1 0 -14.5 5.5t-32.5 13t-30 11.5l-42 18l39 24
q77 49 175 61q80 8 153.5 -14.5t126.5 -66t89.5 -101t49.5 -120.5q9 -51 9 -88v-207h-23q-9 0 -13 -11q0 -1 -3 -9t-8 -18.5t-8 -16.5l-1 -2q-8 -14 -56 -27q-12 -5 -12 -18t12 -18q33 -9 44.5 -16t14.5 -17l1 -4q6 -21 12 -28l2 -2l1 -3q0 -1 1 -2.5t2.5 -3.5t3.5 -5l9 -13
l-10 -14q-42 -57 -122 -57v0v0zM640 -9h88q46 0 73 25q-6 7 -16 37q-5 3 -30 10l-3 1q-19 8 -31 24q-31 -61 -81 -97v0v0zM157 516q-8 -40 -8 -80v-336q0 -51 29 -79t82 -28h88q-72 54 -103.5 144t-19.5 177q6 37 44 42q147 14 233.5 54.5t97.5 84.5q2 13 3 18q3 18 3 19
l8 45l32 -33q9 -9 13 -20q54 -67 79 -106t30 -56.5t5 -42.5v-8q0 -57 -16 -122q15 4 28 10q3 6 8 19t7 15q9 25 33 37v165q0 27 -8 80q-11 54 -43 104.5t-79 88.5t-111.5 57.5t-133.5 13.5q-59 -7 -112 -31l30 -11q20 -8 31.5 -25t11.5 -38q0 -20 -11.5 -37t-31.5 -26l-2 -1
q-51 -18 -65 -24q-28 -67 -28 -70q-8 -20 -25 -31.5t-38 -11.5v0q-43 2 -61 43v0v0z" />
    <glyph glyph-name="certification" unicode="&#xe6fd;" 
d="M884 731h-734q-43 0 -74 -30.5t-31 -74.5v-471q0 -43 31 -74t74 -31h734q43 0 74 31t31 74v471q0 44 -31 74.5t-74 30.5v0zM328 574q38 0 68.5 -26.5t30.5 -60.5t-30 -62.5t-69 -28.5q-37 0 -67 30.5t-30 65.5q0 33 29.5 57.5t67.5 24.5v0zM508 207h-358v18q0 71 45 113
t134 42t134 -40t45 -107v-26v0zM884 273q0 -6 -5 -10t-12 -4h-280q-7 0 -12 4t-5 10v26q0 5 5 9t12 4h280q7 0 12 -4t5 -9v-26zM884 378q0 -5 -5 -9t-12 -4h-280q-7 0 -12 4t-5 9v26q0 6 5 9.5t12 3.5h280q7 0 12 -3.5t5 -9.5v-26zM884 482q0 -5 -5 -9t-12 -4h-280
q-7 0 -12 4t-5 9v26q0 6 5 10t12 4h280q7 0 12 -4t5 -10v-26z" />
    <glyph glyph-name="weibiaoti3" unicode="&#xe611;" 
d="M891 151l-154 155q-11 11 -27 14q49 74 49 162q0 122 -86 207.5t-207 85.5t-207 -85.5t-86 -207t86 -207.5t207 -86q95 0 172 57q5 -14 14 -24l155 -155q17 -17 41 -17q25 0 42.5 18t17.5 42t-17 41zM214 482.5q0 104.5 74 178.5t178.5 74t178.5 -74t74 -178.5
t-74 -178.5t-178.5 -74t-178.5 74t-74 178.5zM862 97q-5 -6 -13 -6t-13 5l-155 155q-5 5 -5 12.5t5.5 13.5t13.5 6t13 -6l155 -154q5 -5 5 -13t-6 -13zM466 704q-62 0 -114.5 -32.5t-79.5 -89.5q-6 -12 6 -18q3 -1 6 -1q8 0 12 8q24 49 69.5 77.5t100.5 28.5q6 0 10 4t4 9.5
t-4 9.5t-10 4zM271 545q-13 3 -16 -10q-5 -23 -5 -48q0 -5 4 -9t9.5 -4t9.5 4t4 9q0 22 4 42q2 6 -1 10.5t-9 5.5z" />
    <glyph glyph-name="ju-icon-receiptAddress" unicode="&#xe61e;" 
d="M128 610q16 21 25 25.5t38 4.5h356q31 0 44 -13t13 -43q0 -3 3 -47q43 -1 46 -1h72q48 3 81 -35q7 -9 73 -93q3 -4 6.5 -17t10.5 -18v-178q-16 -20 -25 -24.5t-38 -5.5h-11q-8 1 -10 -8q0 -2 -1 -3q-11 -44 -58 -56q-7 -1 -10 -4h-31q-1 3 -3 3q-55 9 -67 61q-1 6 -9 7
h-11t-13.5 1.5t-10.5 5.5q-3 3 -9.5 3t-9.5 -3q-6 -5 -13 -6.5t-19 -0.5t-15 1q-32 -1 -107 0q-6 0 -9 -2.5t-5 -9.5q-10 -44 -58 -56q-7 -1 -10 -4h-31q-3 3 -10 4q-40 10 -54 44q-1 2 -2 7.5t-2.5 9t-3.5 4.5q-4 2 -8.5 2.5t-11.5 0t-10 -0.5h-9.5h-9.5q-28 0 -37.5 4.5
t-25.5 25.5v415v0zM573 399q0 167 1 196q0 10 -3.5 12.5t-13.5 2.5h-380q-15 0 -17 -1.5t-2 -16.5v-370v-7q2 -19 21 -20h21h21q9 -1 13.5 0t7.5 5t1 13q9 19 27 33.5t43.5 20t53.5 -8.5q39 -20 44 -48q2 -11 5.5 -13t13.5 -2h63h63q13 0 15 2.5t2 16.5v185zM604 354v-126
q0 -17 1 -19q4 -15 22 -14q6 0 8.5 0.5t5 3.5t2.5 9q2 28 34 45q1 0 6 2.5t6.5 3.5t6 3.5t7 3t7 2t7.5 1.5h7h7q34 -8 54.5 -22t26.5 -43q1 -7 9 -9h19t20.5 5t5.5 21v89q0 14 -2.5 16t-15.5 2q-109 1 -131 0t-37.5 15t-14.5 36q1 4 1 24v24q1 49 53 50q2 0 17 -0.5t17 0.5
q4 0 11.5 -1t13 0t10.5 5q-34 22 -39 25h-16q-85 0 -92 1q-25 0 -31.5 -6t-5.5 -32v-115zM789 358h38t37 2q-1 4 -3.5 12t-5 14.5t-5.5 10.5q-9 14 -34 42q-7 7 -16 8q-37 1 -84 0q-19 0 -19 -21q-1 -24 0 -47q0 -11 5.5 -16t17.5 -5h69zM389 181q0 27 -17.5 43t-45.5 16
q-28 -1 -44 -18t-16 -45q0 -24 17.5 -40t44.5 -16t44 16.5t17 43.5zM725 240q-27 -1 -43 -18t-17 -45q-1 -21 20 -40t46.5 -16.5t41.5 19t16 41.5q-1 27 -18 43t-46 16z" />
    <glyph glyph-name="shuma" unicode="&#xe64c;" 
d="M836 662h-251q-8 37 -38.5 62t-70.5 25h-193q-40 0 -70.5 -25t-38.5 -63q-47 -4 -79 -39t-32 -83v-397q0 -51 35.5 -86.5t86.5 -35.5h651q51 0 86.5 35.5t35.5 86.5v397q0 51 -35.5 87t-86.5 36zM283 697h193q18 0 32.5 -10t21.5 -25h-301q7 15 21.5 25t32.5 10zM906 142
q0 -29 -20.5 -49.5t-49.5 -20.5h-651q-29 0 -49.5 20.5t-20.5 49.5v397q0 29 20.5 49.5t49.5 20.5h651q29 0 49.5 -20.5t20.5 -49.5v-397zM440.5 571q-95.5 0 -163 -67.5t-67.5 -163t67.5 -163t163 -67.5t163 67.5t67.5 163t-67.5 163t-163 67.5zM440.5 162
q-73.5 0 -126 52.5t-52.5 126t52.5 126t126 52.5t125.5 -52.5t52 -126t-52 -126t-125.5 -52.5zM807 501zM769 501q0 16 11 27t27 11t27 -11t11 -27t-11 -27t-27 -11t-27 11t-11 27z" />
    <glyph glyph-name="youxiangrenzheng" unicode="&#xe6cc;" 
d="M840 274l-146 -140l-68 67q-6 6 -13.5 6t-12.5 -5.5t-5 -13t5 -12.5l80 -81q6 -5 13.5 -5t12.5 5l159 153q6 5 6 12.5t-5.5 13t-13 6t-12.5 -5.5v0zM732 430q-90 0 -154 -63.5t-64 -153.5t64 -153.5t153.5 -63.5t153.5 63.5t64 153.5t-64 153.5t-153 63.5v0zM732 32
q-75 0 -128 53t-53 128t53 128t127.5 53t127.5 -53t53 -128t-53 -128t-127 -53v0zM882 771h-740q-28 0 -47.5 -20t-19.5 -47v-435q0 -28 19.5 -47.5t47.5 -19.5h318v36h-303l232 217l123 -114l399 371q1 -6 1 -8v-290h37v290q0 27 -19.5 47t-47.5 20v0zM118 252q-6 8 -6 17
v435q0 2 1 8l250 -232l-245 -228v0zM143 734h738l-369 -344l-369 344v0z" />
    <glyph glyph-name="iconfontlock" unicode="&#xe648;" 
d="M366 457h292v110q0 60 -42.5 103t-103.5 43t-103.5 -43t-42.5 -103v-110zM841 402v-329q0 -23 -16 -39t-39 -16h-548q-23 0 -39 16t-16 39v329q0 23 16 39t39 16h18v110q0 105 75.5 180.5t180.5 75.5t180.5 -75.5t75.5 -180.5v-110h18q23 0 39 -16t16 -39z" />
    <glyph glyph-name="renzheng1" unicode="&#xe62a;" horiz-adv-x="1203" 
d="M1158.5 851.5q-43.5 44.5 -106.5 44.5h-902q-41 0 -76 -21q-34 -20 -54 -55q-20 -34 -20 -75v-722q0 -62 44 -106.5t106 -44.5h902q42 0 76 21q34 20 54 55q20 34 20 75v722q0 62 -43.5 106.5zM1143 23q0 -37 -26.5 -63.5t-64.5 -26.5h-902q-25 0 -45.5 12t-33 32.5
t-12.5 45.5v722q0 37 26.5 63.5t64.5 26.5h902q18 0 35 -7t29.5 -19.5t19.5 -29t7 -34.5v-722zM601 733h459v-51h-459v51zM1061 181q0 -64 -45 -109t-108 -45t-108 45t-45 108.5t45 108.5t108 45t108 -45t45 -108v0zM874 217l-77 -11l56 -55l-14 -76l69 36l68 -36l-13 76
l56 55l-77 11l-34 70l-34 -70v0zM601 578h460v-51h-460v51zM601 436h204v-51h-204v51zM239 446l-24 25q12 16 12 31v100h-37v33h71v-121q12 9 44 41q4 -18 10 -34q-32 -29 -55 -53q-15 -13 -21 -22zM265 660q-18 22 -50 57l28 21q23 -23 53 -54zM308 425q-13 19 -24 31
q91 68 91 208q0 12 1 46v27h37q0 -35 -1 -54q13 -163 98 -220q-4 -4 -12 -16q-2 -3 -5 -7t-5 -6t-3 -4q-68 55 -86 153q-16 -92 -91 -158zM234 64l-23 27q11 11 11 34v97h-34v33h68v-127l12 12q13 15 20 21q1 -24 5 -40q-8 -7 -28 -26t-31 -31zM251 278q-16 24 -45 60l29 19
q2 -3 8 -10q19 -23 39 -47zM293 308v33h210v-33h-75v-85h66v-32h-66v-100h82v-31h-234v31h37v168h34v-168h45v217h-99z" />
    <glyph glyph-name="lvyou1" unicode="&#xe60d;" 
d="M922 412q4 8 4 17q0 20 -18 30q-7 4 -17 4q-19 0 -29 -16q-39 15 -81 14q-96 0 -184 -66l14 -31q5 1 10 1q12 0 22 -6q15 -9 22 -28l5 -16l16 4q6 2 13 2q12 0 22 -5q15 -9 22 -29l4 -15l16 4q5 1 11 1t14 -2l-115 -210q-69 14 -132 14q-45 0 -91 -7l-62 429
q16 -2 29 -13l14 -11l11 14q22 27 51 31q5 1 11 1q24 0 48 -17l13 -9l10 13q22 26 52 31h10q30 0 57 -23l26 22q-59 105 -151 166t-196 61v1v5q-2 17 -14.5 27.5t-28.5 10.5q-3 0 -6 -1q-16 -2 -26.5 -14t-10.5 -29v-6q1 -2 1 -5q-98 -26 -169.5 -106.5t-103.5 -193.5
l30 -17q21 23 48 27q5 1 10 1q25 0 48 -17l14 -9l10 13q22 26 52 31h10q25 0 48 -16l13 -9l10 12q17 21 45 27l62 -432q-104 -20 -185 -60v0q-13 -6 -9.5 -19.5t16.5 -13.5h607q14 0 17 13.5t-9 19.5q-79 35 -144 51l108 196q2 -3 4 -9l4 -17l17 4q7 2 14 2q12 0 22 -6
q15 -8 21 -28l5 -15l16 4q7 1 14 1q12 0 22 -5q18 -10 23 -35l34 2q3 24 3 46q0 65 -24 121.5t-69 92.5zM329 776h1v0q7 0 8 -8h1q0 -4 -4 -7l-4 -3l-5 2q-4 3 -4 6v1q0 8 7 9zM292 506q-27 14 -55 14q-8 0 -15 -1q-36 -5 -64 -32q-26 15 -55 15q-7 0 -15 -1q-12 -2 -23 -6
q37 94 104 155.5t152 77.5l11 2l17 1q12 1 23 1q80 0 154 -41.5t130 -115.5q-10 1 -19 1q-8 0 -15 -1q-36 -5 -63 -32q-27 15 -55 15q-7 0 -16 -1q-35 -5 -62 -32q-22 12 -48 12q-10 0 -21 -2q-39 -5 -65 -29zM752 9h-422q44 14 90 23l1 -2l34 5v3q45 6 86 6q102 0 209 -34
q1 -1 2 -1zM972 215q-18 10 -39 10v0h-7q-12 23 -32 34q-18 10 -39 10h-7q-10 19 -32 31q-21 12 -42 12h-4q-11 22 -32 34q-18 10 -39 10h-7q-12 22 -32 34q-3 1 -4 2q62 34 125 34q47 0 87 -20l7 -3l8 -6q45 -28 70 -77t27 -110q-4 3 -8 5z" />
    <glyph glyph-name="anquanzhongxin" unicode="&#xe627;" 
d="M163 670q0 -35 3 -74q12 -146 61 -285q44 -127 172 -240q42 -37 88 -68q18 -12 25 -16q8 6 18 12q46 30 88 67q133 115 179 245q49 139 61 284q3 40 3 75q-38 -3 -76 -3q-55 0 -88 8q-38 9 -106 51q-31 20 -68 46q-2 2 -6 4.5t-6 4.5q-37 -28 -70 -50q-33 -21 -59 -34
q-32 -17 -55 -22q-34 -7 -88 -7q-39 0 -76 2v0zM759 318q-53 -150 -223 -274l-24 -17l-24 17q-170 124 -223 274q-46 134 -58 275l-4 44l44 1q56 0 91 8q34 8 81 34q31 17 70 44l23 15l22 -15q43 -29 72 -45q46 -25 79 -33q36 -8 92 -8l44 -1l-4 -43q-11 -141 -58 -276v0z
" />
    <glyph glyph-name="youxiangyanzhengchenggongzhuce" unicode="&#xe71d;" 
d="M696 171q-4 0 -6 3l-78 78q-7 6 0 13t13 0l72 -71l168 149q7 6 13 -1t-1 -13l-174 -155q-3 -3 -7 -3zM754.5 452q80.5 0 137.5 -57t57 -137t-57 -136.5t-137.5 -56.5t-137.5 56.5t-57 136.5t57 137t137.5 57zM755 471q-89 0 -151.5 -62.5t-62.5 -150.5t62.5 -150t151 -62
t151 62t62.5 150t-62.5 150.5t-150.5 62.5v0zM482.5 365q-3.5 0 -5.5 2l-408 329q-7 6 -1 13.5t13 1.5l402 -324l382 323q7 7 13 -0.5t-1 -13.5l-388 -329q-3 -2 -6.5 -2zM75 230q-4 0 -6 2q-7 7 0 14l252 251q7 7 13.5 0t-0.5 -13l-252 -252q-3 -2 -7 -2zM482 210h-387
q-20 0 -34.5 14t-14.5 34v426q0 20 14.5 34t34.5 14h757q20 0 34 -14t14 -34v-189q0 -9 -9.5 -9t-9.5 9v189q0 12 -8.5 20.5t-20.5 8.5h-757q-12 0 -21 -8.5t-9 -20.5v-426q0 -12 9 -20.5t21 -8.5h387q9 0 9 -9.5t-9 -9.5z" />
    <glyph glyph-name="youxiangyanzhengshibaizhuce" unicode="&#xe71e;" 
d="M754.5 452q80.5 0 137.5 -57t57 -137t-57 -136.5t-137.5 -56.5t-137.5 56.5t-57 136.5t57 137t137.5 57zM755 471q-89 0 -151.5 -62.5t-62.5 -150.5t62.5 -150t151 -62t151 62t62.5 150t-62.5 150.5t-150.5 62.5v0zM482.5 365q-3.5 0 -5.5 2l-408 329q-7 6 -1 13.5
t13 1.5l402 -324l382 323q7 7 13 -0.5t-1 -13.5l-388 -329q-3 -2 -6.5 -2zM75 230q-4 0 -6 2q-7 7 0 14l252 251q7 7 13.5 0t-0.5 -13l-252 -252q-3 -2 -7 -2zM482 210h-387q-20 0 -34.5 14t-14.5 34v426q0 20 14.5 34t34.5 14h757q20 0 34 -14t14 -34v-189q0 -9 -9.5 -9
t-9.5 9v189q0 12 -8.5 20.5t-20.5 8.5h-757q-12 0 -21 -8.5t-9 -20.5v-426q0 -12 9 -20.5t21 -8.5h387q9 0 9 -9.5t-9 -9.5zM843 153q-4 0 -7 3l-176 157q-7 6 -1 13t14 1l176 -157q7 -6 1 -13q-3 -4 -7 -4zM666 153q-4 0 -7 4q-6 7 1 13l176 157q8 6 14 -1t-1 -13
l-176 -157q-3 -3 -7 -3z" />
    <glyph glyph-name="chanzi" unicode="&#xe637;" 
d="M949 833h-1q-46 46 -89 46q-32 0 -51 -21l-2 -1l-84 -85q-42 -43 -126 -167q-14 -24 -10.5 -41.5t16.5 -28.5l5 -4l2 -3l31 -32l-131 -132q-8 -9 -8 -19q0 -11 8 -20l158 -159l-485 -253q-8 -2 -15.5 -2.5t-15.5 2.5t-13.5 6t-14 10.5t-13.5 12t-14 13.5
q-24 24 -36.5 52.5t-4.5 51.5l232 526l157 -159l-100 -101q-21 -21 -20.5 -44.5t21.5 -44.5q4 -4 16.5 -10.5t17.5 -6.5q2 0 6 -1t6.5 -1t4.5 2q1 3 2 5.5t-2 7t-5 8t-7 8.5t-8 8.5t-7.5 8l-6.5 6.5q-5 5 -3.5 16.5t6.5 16.5l199 203l-21 21l-79 -80l-167 168q-3 4 -4.5 5.5
t-1.5 2.5q-5 4 -11 -2t-9 -14l-232 -528v-2q-28 -78 36 -143v-1l1 -1q21 -20 44.5 -32t36.5 -12h12.5h10t8 0.5l7 1t5 0.5t4.5 1t4 1.5t4.5 2t4.5 1.5l2 1l433 234q5 2 12.5 6t18 9.5t16.5 11t5 8.5q-8 12 -23 27l-149 151l137 135l21 -14q17 0 32 11q11 7 34.5 23t65.5 49
t65 56l85 85v0q21 20 22 52q0 45 -45 91v0v0zM955 719l-2 -2l-96 -98q-38 -38 -98.5 -80.5t-72.5 -41.5h-9l-8 9l-3 2l-37 37l-2 4l-9 26l1 1l4 6.5t10.5 17t15.5 24.5t19.5 29.5t22 30.5t24 30t23.5 26l95 97l3 3v0l6 1t14 2.5t12 1.5q24 0 57 -34l1 -1q15 -15 24.5 -38.5
t9.5 -37.5q0 -9 -5 -15v0v0z" />
    <glyph glyph-name="shouhou2" unicode="&#xe61d;" 
d="M928 768h-832q-40 0 -68 -28t-28 -68v-640q0 -40 28 -68t68 -28h832q40 0 68 28t28 68v640q0 40 -28 68t-68 28zM960 64q0 -26 -19 -45t-45 -19h-768q-26 0 -45 19t-19 45v576q0 26 19 45t45 19h768q26 0 45 -19t19 -45v-576zM192 132v-31l102 -71l29 40l-46 32h555v50
h-640v-20zM701 273l46 -32h-555v-49h640v50l-102 72zM487 273h50v118h117v49h-117v45h117v50h-57l46 32l-29 40l-101 -71h-2l-101 71l-29 -40l46 -32h-57v-50h117v-45h-117v-49h117v-118z" />
    <glyph glyph-name="weibiaoti11" unicode="&#xe608;" 
d="M692 513l-181 34l-181 -34q0 75 53 128t128 53t128 -53t53 -128zM804 484l-293 -52l-292 52l292 53zM730 384l-219 -39l-218 39l218 39zM694 302l-181 -33l-181 33l181 33zM416 159h-77v9h2v23h72v-22h3v-10v0zM339 233h8l-2 4h15l2 -4h31l1 4h15l-1 -4h8v-10h-77v10v0z
M341 194v25h11v-25h-11zM352 168h10v13h-10v-13zM359 194v25h10v-25h-10zM372 215h5q3 0 4 2l1 4h12l-1 -1h23v-9h-25l-1 -2q-1 -3 -4 -2h-14v8v0zM372 181v-13h10v13h-10zM377 197l-5 8h14l1 -1q0 -2 3 -2h26v-8h-32q-6 0 -7 3zM392 168h10v13h-10v-13zM427 236h31v-67
q0 -8 -9 -8h-22v75zM439 205h7v19h-7v-19zM446 176v16h-7v-19h4q3 0 3 3zM460 221v15h43v-15h-12v4h-18v-4h8l-1 -4h23v-10h-27l-3 -12h6v8h13v-7h11v-11h-11v-7h11v-11h-11v-8h-13v8h-19v10h19v8h-19v11l3 11h-3v10h6l2 4h-8v0zM515 233h24q1 -1 1.5 -0.5t0.5 2.5v1h12v-4
q1 -9 -10 -8h-3v-5h13v-10h-13v-49h-11v49h-15v10h15v4h-14v10zM519 161h-5v9h1l0.5 0.5t0.5 2.5l1 33h11l-1 -37q0 -9 -8 -8zM541 206h9l1 -32q0 -3 1 -3h1v7l22 2v56h11v-55l4 1v-12h-4v-11h-12v10l-21 -2v-6h-5q-7 0 -6 9zM554 233h11l2 -10q0 -2 0.5 -3t2.5 -1h3v-9h-11
q-3 -1 -4.5 1t-2.5 7zM555 193l-1 13h11l2 -8q0 -4 3 -3h3v-9h-9q-9 -1 -9 7zM601 222v10h17v6h11v-6h5v-10h-5v-4h3v-11h-3v-37q1 -9 -8 -8h-18v9h13q1 0 1.5 0.5t0.5 1.5v19l-7 -12q-2 -4 -6 -4h-5v10h1q2 0 4 3l13 24v9h-17v0zM636 232h13v7h12v-7h17v-9h-17v-10h17v-9
l-16 -23l7 -8q1 -3 4 -2h5v-9h-12q-3 0 -5 3l-5 7l-7 -9q-1 -1 -4 -1h-12v9h7q2 0 3 2l7 8l-14 19h13l7 -10l8 14h-29v9h14v10h-13v9v0zM366 91h-27v42h9v-35h18v-7zM376 91h-8l15 42h11l14 -42h-9l-3 9h-17zM382 107h12l-6 18v0zM451 91h-13l-17 35v0v-35h-8v42h13l16 -33
v0v33h9v-42zM467 91h-9v42h9v-17h16v17h9v-42h-9v18h-16v-18zM528 133h9v-27q-1 -15 -18 -16q-18 1 -19 16v27h10v-23q-1 -7 1.5 -10.5t7.5 -3.5q10 0 9 14v23v0zM554 133v-42h-9v42h9zM570 133v-18l15 18h10l-16 -19l17 -23h-11l-15 21v-21h-9v42h9zM600 91v42h28v-7h-19
v-10h17v-7h-17v-11h19v-7h-28v0zM652 133h8v-28q0 -14 -13.5 -14.5t-14.5 13.5h9q0 -8 5 -8t6 8v1v0v28v0zM677 133v-42h-9v42h9z" />
    <glyph glyph-name="jiaoyin" unicode="&#xe8e4;" 
d="M420 781q21 1 34.5 18t11.5 40t-19.5 40.5t-39 16.5t-33.5 -17t-10 -41q2 -26 18 -42t38 -15zM317 781q16 1 27.5 14.5t10.5 31.5q-1 19 -15 32.5t-33 13.5q-17 -1 -28.5 -14t-10.5 -31q2 -19 16.5 -33.5t32.5 -13.5v0zM149 709q18 -12 36 -2q24 14 17 44q0 1 -4 18h-1h1
q23 -25 47 -18q22 7 26 33q4 29 -22 44q-34 17 -52 -14q-7 -12 -1 -44q-56 28 -66 -16q-6 -27 19 -45zM150 683q-8 36 -40 33t-28 -38q4 -33 37 -32q32 1 31 37v0zM630 557q20 -2 36.5 13.5t21.5 42.5q4 25 -6 42.5t-30 19.5t-38 -14.5t-22 -40.5q-4 -23 7.5 -41.5
t30.5 -21.5zM727 550q16 -2 31.5 12t18.5 33q2 18 -7.5 32.5t-25.5 16.5q-17 2 -31.5 -11t-17.5 -33q-2 -18 7.5 -33t24.5 -17zM792 515q21 -10 46 14l2 2q8 32 2 45q-14 33 -47 17q-26 -12 -25 -43q1 -27 22 -35zM832 512q-9 -31 12 -47q16 -12 34 0q25 16 22 44
q-6 47 -60 22l-2 -2q-1 0 -3 -7t-3 -10v0zM915 469q-30 5 -40 -31q-4 -37 25 -40q31 -4 38 30q7 36 -23 41zM208 488q51 -93 54 -207q1 -41 6 -57q6 -19 25.5 -31.5t39.5 -8.5q28 4 42.5 19.5t11.5 33.5t-17 33q-121 127 -22 291q10 15 30 44q16 25 23 36q9 14 6.5 28.5
t-14.5 25.5q-27 23 -76 2q-64 -27 -96 -57.5t-37 -71.5q-1 -4 -1 -10q8 -40 25 -70zM293 754q42 17 78 13.5t62 -26.5q29 -25 35 -62t-14 -70q-8 -13 -26 -39.5t-27 -40.5q-75 -124 14 -217q27 -28 33 -64q7 -45 -23 -81t-82 -44q-43 -7 -82 17.5t-52 65.5q-7 24 -9 74
q-2 98 -46 178q-23 42 -33 95l2 22q8 64 52 106t118 73zM829 323q-1 44 -28 78t-84 66q-40 22 -64 3q-13 -11 -17.5 -28t3.5 -33q5 -13 19 -39q16 -31 23 -48q76 -172 -46 -291q-15 -14 -20 -34q-5 -21 7 -38t36 -24q16 -4 34.5 7.5t25.5 30.5q7 18 12 61q13 115 68 205
q20 32 31 73v11zM747 521q66 -37 104 -83.5t40 -112.5q0 -1 -1 -22q-14 -54 -39 -96q-49 -79 -60 -180q-6 -51 -15 -75q-16 -41 -55 -63.5t-78 -12.5q-49 12 -74 51t-14 84q4 16 15 34.5t22 30.5q92 89 33 221q-7 15 -21.5 44t-20.5 43q-16 35 -7 72.5t38 61.5q27 21 61 22
t72 -19v0z" />
    <glyph glyph-name="wenquan" unicode="&#xe60f;" 
d="M748 520zM513 -48q-207 0 -356 97q-74 48 -113.5 111t-39.5 133q0 86 59 160q57 71 155 117q8 4 17 1t12.5 -11t0.5 -17t-11 -13q-89 -42 -139 -105t-50 -132q0 -58 34.5 -111.5t98.5 -95.5q138 -89 332 -89t331 89q65 42 99.5 95.5t34.5 111.5q0 78 -62 146.5
t-169 108.5q-9 3 -12.5 11.5t-0.5 17t11.5 12.5t17.5 0q117 -44 186 -120q73 -81 73 -176q0 -70 -39.5 -132.5t-113.5 -111.5q-150 -97 -356 -97zM766 636q-19 0 -32.5 14t-13.5 33.5t13.5 33.5t32.5 14t32.5 -14t13.5 -33.5t-13.5 -33.5t-32.5 -14zM766 701q-7 0 -12 -5
t-5 -12.5t5 -12.5t12 -5t12 5t5 12.5t-5 12.5t-12 5zM236 641q-27 0 -46 19.5t-19 47t19 47t46 19.5t46 -19.5t19 -47t-19 -47t-46 -19.5zM235.5 744q-14.5 0 -25 -10.5t-10.5 -26t10.5 -26.5t25 -11t25 11t10.5 26.5t-10.5 26t-25 10.5zM616 713q-21 0 -35.5 15t-14.5 36.5
t15 36.5t35.5 15t35 -15t14.5 -36.5t-14.5 -36.5t-35.5 -15zM616.5 786q-8.5 0 -14.5 -6.5t-6 -15.5t6 -15t14.5 -6t14.5 6t6 15t-6 15.5t-14.5 6.5zM622 415q-13 0 -18 12q-2 7 -5 15t-9 32t-8 45t1 47.5t13 46.5q23 43 75 53q8 2 14.5 -2.5t8.5 -12.5t-2.5 -14.5
t-12.5 -8.5q-34 -7 -48 -33q-13 -20 -11 -54t7.5 -57.5t13.5 -41.5q3 -8 -0.5 -15.5t-10.5 -9.5q-4 -2 -8 -2zM403 400q-4 0 -7 1q-8 3 -11 10.5t0 15.5v0q7 18 12.5 41.5t7.5 57.5t-11 54q-14 26 -48 33q-8 2 -12.5 8.5t-2.5 14.5t8.5 12.5t14.5 2.5q52 -11 75 -53
q10 -20 13 -46.5t1 -47.5t-8 -45t-9 -32t-5 -15q-5 -12 -18 -12zM504 433q-15 0 -19 15q-1 7 -3.5 19t-4 41t1 56t14 58t32.5 53q6 5 14 5.5t14 -5t6 -14t-6 -14.5q-16 -17 -25 -44t-11 -48t0 -49t3.5 -33.5t3.5 -15.5q1 -8 -3 -14.5t-12 -8.5q-3 -1 -5 -1z" />
    <glyph glyph-name="shouhuo" unicode="&#xe636;" 
d="M928 618l-76 147q-14 27 -44.5 45.5t-61.5 18.5h-468q-30 0 -61 -18.5t-45 -45.5l-76 -143q-12 -23 -20.5 -57.5t-8.5 -60.5v-482q0 -34 24.5 -58.5t58.5 -24.5h724q34 0 58.5 24.5t24.5 58.5v479q0 26 -8.5 60t-20.5 57zM145 596l76 143q7 14 24.5 24.5t32.5 10.5h468
q15 0 32.5 -10.5t24.5 -24.5l76 -146q5 -9 10 -26h-755q6 19 11 29zM902 22q0 -11 -8.5 -19.5t-19.5 -8.5h-724q-11 0 -19 8.5t-8 19.5v482v8h778q1 -10 1 -11v-479zM746 358l-140 -149l-57 56q-8 8 -19.5 8t-19.5 -8t-8 -19.5t8 -19.5l76 -76q8 -8 20 -8q5 0 11 2q7 3 11 7
l159 169q6 8 6 19t-8 19.5t-19.5 8.5t-19.5 -9zM429 318h-167q-11 -1 -19 -9t-8 -19t8 -19.5t19 -8.5h167q12 0 20 8t8 19.5t-8 20t-20 8.5zM345 199h-84q-11 0 -19 -8.5t-8 -19.5t8 -19t19 -9h84q11 0 19 8.5t8 20t-8 19.5t-19 8z" />
    <glyph glyph-name="warning" unicode="&#xe610;" 
d="M512 892q103 0 197 -40.5t162 -108.5t108.5 -162t40.5 -197t-40.5 -197t-108.5 -162t-162 -108.5t-197 -40.5t-197 40.5t-162 108.5t-108.5 162t-40.5 197t40.5 197t108.5 162t162 108.5t197 40.5zM512 210q-32 0 -54.5 -22.5t-22.5 -54.5t22.5 -54.5t54.5 -22.5
t54.5 22.5t22.5 54.5t-22.5 54.5t-54.5 22.5zM509.5 270q27.5 0 47 19.5t19.5 46.5v310q0 27 -19.5 46.5t-47 19.5t-46.5 -19.5t-19 -46.5v-310q0 -27 19 -46.5t46.5 -19.5z" />
    <glyph glyph-name="gongmujijin" unicode="&#xe60a;" 
d="M520 318q-163 0 -280 48q-60 25 -92 58t-32 70q0 29 19 56l29 -21q-12 -18 -12 -35q0 -25 26.5 -50t75.5 -45q110 -45 266 -45q157 0 266 45q49 20 75.5 45t26.5 50q0 18 -12 35l28 21q20 -26 20 -56q0 -37 -32 -70.5t-92 -57.5q-116 -48 -280 -48zM520 173
q-163 0 -280 48q-60 24 -92 57t-32 71q0 29 19 55l29 -21q-12 -17 -12 -34q0 -26 26.5 -50.5t75.5 -44.5q110 -45 266 -45q157 0 266 45q49 20 75.5 44.5t26.5 50.5q0 17 -12 34l28 21q20 -26 20 -55q0 -38 -32 -71t-92 -58q-116 -47 -280 -47zM520 3q-163 0 -280 47
q-60 25 -92 58t-32 71q0 29 19 55l29 -21q-12 -17 -12 -34q0 -26 26.5 -51t75.5 -45q110 -45 266 -45q157 0 266 45q49 20 75.5 45t26.5 51q0 17 -12 34l28 21q20 -26 20 -56q0 -37 -32 -70t-92 -58q-116 -47 -280 -47zM520.5 457q-163.5 0 -280.5 48q-60 24 -92 57
t-32 70.5t32 71t92 57.5q117 48 280.5 48t279.5 -48q60 -24 92 -57.5t32 -71t-32 -70.5t-92 -57q-116 -48 -279.5 -48zM520 773q-157 0 -266 -45q-49 -20 -75.5 -45t-26.5 -50.5t26.5 -50t75.5 -44.5q110 -45 266 -45q157 0 266 45q49 20 75.5 44.5t26.5 50t-26.5 50.5
t-75.5 45q-109 45 -266 45z" />
    <glyph glyph-name="wenhao" unicode="&#xe647;" 
d="M512 895q100 0 192 -37q96 -39 170 -113q73 -73 112 -169q37 -92 37 -192q0 -101 -37 -193q-39 -95 -112 -169q-74 -74 -170 -112q-92 -38 -192 -38t-193 38q-95 38 -169 112q-73 73 -112 169q-38 93 -38 193t38 192q38 95 112 169t169 113q93 37 193 37zM513 677
q-81 0 -130 -43t-58 -124l73 -9q9 61 40 89q30 29 76 29q47 0 79 -32q33 -31 33 -73q0 -23 -11 -42q-11 -20 -48 -52q-38 -33 -51 -50q-20 -24 -28 -46q-12 -31 -12 -73v-21h69q0 44 6 62q5 18 15 33q10 14 46 46q52 46 69 78q18 32 18 70q0 66 -50 112q-52 46 -136 46z
M512 177q-18 0 -31 -12.5t-13 -30.5t13 -31t31 -13t31 13t13 31t-13 30.5t-31 12.5z" />
    <glyph glyph-name="fahuo" unicode="&#xe739;" 
d="M372 428h-333q-13 0 -22 -9t-9 -22t9.5 -22t21.5 -9h333q13 0 22 9t9 22q0 12 -9 21.5t-22 9.5zM227 294h-188q-13 0 -22 -9t-9 -22t9.5 -22t21.5 -9h188q13 0 22 9t9 22q1 13 -8 22t-23 9zM802 262.5q0 4.5 -1 6.5l-0.5 1.5l-0.5 1.5l-0.5 1.5l-0.5 1.5q-1 3 -1 4
q-1 0 -1 2l-1.5 2t-2.5 3l-108 106q-9 10 -22 10t-22 -9.5t-9 -22.5t9 -22l54 -54h-185q-13 0 -22 -9t-9 -22t9.5 -22t21.5 -9h185l-54 -54q-9 -9 -9 -22t9 -22t22 -9t22 9l107 108l5 5l0.5 1l0.5 1q1 3 1 4q1 0 1 2q0 1 0.5 2l0.5 1q1 0 1 4.5zM132 160h-94q-12 0 -21.5 -9
t-9.5 -22t9 -22t22 -9h94q13 0 22 9t9 22q1 13 -8.5 22t-22.5 9zM978 658l-86 165q-16 31 -50.5 52t-69.5 21h-527q-34 0 -68.5 -21t-50.5 -51l-86 -162q-14 -26 -23.5 -64.5t-9.5 -67.5v-26q0 -13 9 -22t22 -9t22 9t9 22v26v4v4h877q1 -4 1 -12v-539q0 -13 -9 -22t-22 -9
h-816q-12 0 -21.5 9.5t-9.5 21.5v38q0 13 -9 22t-22 9t-22 -9t-9 -22v-39q0 -39 27.5 -66t66.5 -27h815q39 0 66.5 27.5t27.5 65.5v539q0 30 -9 68.5t-23 64.5zM83 601q6 20 12 32l86 161q8 16 27.5 27.5t36.5 11.5h528q17 0 36.5 -11.5t27.5 -27.5l86 -165q5 -9 11 -29
h-851v1z" />
    <glyph glyph-name="laowujiesuan" unicode="&#xe602;" horiz-adv-x="1357" 
d="M1062 548l29 122q10 35 -10 70t-57 46l-415 106h-1q-3 0 -9 1q-7 3 -13 3q-34 0 -59.5 -20t-32.5 -52l-2 -12h-2h-1q-3 0 -9 2q-7 3 -13 3q-33 0 -58.5 -20.5t-32.5 -51.5l-56 -197h-16q-40 0 -68 -28t-28 -68v-484q0 -40 28 -68t68 -28h748q40 0 68 28t28 68v484
q0 37 -24.5 64.5t-61.5 31.5zM912 599l-15 -51h-512l41 175q3 12 13 20.5t23 8.5h8l412 -105q18 -6 22 -17v-2l2 -1q6 -6 6 -28zM972 587q11 39 -11 74q-21 34 -61 41l-352 86l14 34q10 10 24 10h7l413 -106h1q15 -3 22 -18q7 -13 3 -24l-1 -1l-29 -135h-40zM268 452
q0 17 10 26.5t26 9.5h748q17 0 26.5 -9.5t9.5 -26.5v-484q0 -16 -9.5 -26t-26.5 -10h-748q-16 0 -26 10t-10 26v484zM524 152q-13 0 -21.5 -8.5t-8.5 -21.5t8.5 -21.5t21.5 -8.5h124v-102q0 -13 8.5 -21.5t21.5 -8.5t21.5 8.5t8.5 21.5v102h124q13 0 21.5 8.5t8.5 21.5
t-8.5 21.5t-21.5 8.5h-124v72h124q13 0 21.5 8.5t8.5 21.5t-8.5 21.5t-21.5 8.5h-60l57 57q9 9 9 21t-9 21t-21 9t-21 -9l-99 -99h-20l-98 99q-9 9 -21.5 9t-21.5 -9t-9 -21t9 -21l57 -57h-60q-13 0 -21.5 -8.5t-8.5 -21.5t8.5 -21.5t21.5 -8.5h124v-72h-124z" />
    <glyph glyph-name="xinyong" unicode="&#xe626;" 
d="M998 865l-2 22l-22 4q-36 5 -73 5h-5h-6q-44 0 -103.5 -12.5t-99.5 -29.5q-86 -40 -151 -186q-10 -22 -18 -44q-13 41 -34 80q-15 28 -44 60t-55 50q-49 33 -125.5 56.5t-135.5 23.5h-4q-37 0 -73 -8l-20 -5l-2 -20q-1 -17 -1 -34q0 -47 8 -94q10 -59 35 -113
q12 -26 35.5 -57.5t45.5 -50.5q28 -25 72 -51.5t79 -38.5q61 -22 126 -22q38 0 75 6v-84h-289v-352q0 -41 29 -69.5t69 -28.5h454q40 0 68.5 28.5t28.5 69.5v353h-306v169q52 -9 106 -9q170 0 259 100q28 32 46 72.5t25 73t9 67t1 48t-2 21.5zM798 -31q0 -16 -11.5 -27.5
t-27.5 -11.5v0h-455v0q-16 0 -27.5 11.5t-11.5 27.5v300h533v-300zM425 459q-124 0 -239 98q-18 15 -37 40.5t-29 46.5q-21 47 -30 98q-8 43 -8 87v3q21 3 42 3v0q52 0 118.5 -20.5t109.5 -49.5q21 -14 44.5 -40t35.5 -49q27 -50 39 -105q10 -52 10 -105v0q-28 -6 -56 -6v-1
zM875 622q-71 -81 -215 -81q-53 1 -105 10q15 48 35 94q55 125 122 155q35 15 86.5 25.5t89.5 10.5h8q24 0 45 -2q3 -134 -66 -213v1zM265 215h541v-54h-541v54z" />
    <glyph glyph-name="fukuan1" unicode="&#xe609;" horiz-adv-x="1089" 
d="M403 896q33 -4 57 -25l102 -54l-9 -9l-31 -28l1 -2q6 -2 18 -8.5t17.5 -7.5t22.5 1l-183 -174h458q-15 -19 -15 -29.5t21 -21.5l-525 1q35 19 59 50h-76l8 9l193 181v1l-102 56l-3 -2l-150 -244v-1h54q-15 -16 -15 -28t21 -23l-102 1q7 1 14 7t10.5 12.5t9 16.5t7.5 13v1
h-62v1l138 221q3 5 15.5 28.5t22.5 36.5t24 20zM656 896q13 -2 26.5 -13t28 -27t21.5 -21l216 -203q4 -6 4.5 -11t-2 -9.5t-5 -8t-6.5 -8t-6 -6.5q118 1 149 -89q7 -38 7 -75q0 -18 -1 -35v-213q0 -13 1 -57.5t1 -71t-4 -59t-13 -46.5q-10 -18 -22.5 -30.5t-29.5 -20.5
t-31 -12.5t-39.5 -6t-40.5 -1.5t-49 0.5t-51 0.5h-683q-35 3 -69 27t-48 56q-9 41 -9 82q0 17 1 33v219q0 14 -1 53t-1 65t2.5 56.5t9.5 45.5q13 28 44 51t62 27l84 1q-11 -18 -10 -29.5t21 -21.5q-24 1 -45.5 0.5t-39.5 -3t-33 -10t-24 -20.5q-4 -5 -7 -13t-4.5 -14
t-2 -18.5t-0.5 -17.5v-20.5v-19.5v-356q-1 -11 -1 -22q0 -24 4 -47q7 -19 26.5 -34.5t39.5 -17.5h648l195 1q22 5 39 19q6 5 10.5 11t7.5 15.5t4.5 16t2 19.5t1 19.5t0 23t-0.5 21.5v304q0 8 0.5 27.5t0.5 31t-1 26.5t-4.5 26t-8.5 19q-10 12 -28.5 22t-33.5 11l-85 1
q35 19 59 50h-76l8 9l22 19l-9 11l-220 206l-7 -7l-60 -56q6 12 3 20t-6 10t-11.5 7t-13.5 9l4 5l25 22q27 32 65 52zM860 333q61 1 98.5 -41.5t12.5 -99.5q-10 -23 -35 -41t-50 -22q-9 -1 -18 -1q-44 0 -74.5 31t-30.5 74q0 17 5 33q7 18 25 35.5t36 24.5zM870 283
q-5 -2 -13 -4.5t-12 -4t-9.5 -4.5t-9 -7.5t-6.5 -11.5q-4 -9 -4 -19q0 -22 15.5 -37.5t37.5 -15.5q5 0 10 1q19 2 32 17t13 34q0 23 -17 39q-17 11 -37 13v0z" />
    <glyph glyph-name="sucaisousuoleixingzhankai" unicode="&#xe652;" horiz-adv-x="1843" 
d="M1732 -108l-810 840l-811 -840q-8 -8 -21 -14t-24.5 -6t-25 6t-21.5 14q-19 20 -19 47.5t19 47.5l848 880q8 12 24 20.5t30 8.5h1v0q15 0 30.5 -8.5t23.5 -20.5l848 -880q19 -20 19 -47.5t-19 -47.5q-8 -8 -21.5 -14t-24.5 -6t-24.5 6t-21.5 14v0z" />
  </font>
</defs>
</svg>
